<?xml version="1.0" encoding="UTF-8" standalone="no"?>
<!DOCTYPE svg PUBLIC "-//W3C//DTD SVG 1.1//EN" "http://www.w3.org/Graphics/SVG/1.1/DTD/svg11.dtd">
<svg width="100%" height="100%" viewBox="0 0 13233 7696" version="1.1" xmlns="http://www.w3.org/2000/svg" xmlns:xlink="http://www.w3.org/1999/xlink" xml:space="preserve" xmlns:serif="http://www.serif.com/" style="fill-rule:evenodd;clip-rule:evenodd;stroke-linecap:round;stroke-linejoin:round;stroke-miterlimit:1.5;">
    <g transform="matrix(1,0,0,1,-10458.1,-658.562)">
        <g transform="matrix(1.11361,0,0,1.11361,8962.23,358.57)">
            <path d="M11767.1,572.352L11768.1,536.773L11770.1,510.568L11772.2,492.356L11775.1,480.812L11782.6,473.586L11796.3,470.864L11951.7,470.701L12111.8,469.599L12270.9,467.767L12431.2,466.543L12588.2,466.446L12592.3,464.679L12599.9,465.586L12604.8,467.737L12611.4,471.729L12622,481.549L12650.3,505.708L12679.3,534.597L12706.6,562.731L12730.1,591.268L12746.6,612.677L12780.4,660.284L12804.6,699.408L12827.4,739.142L12850.8,788.232L12876.9,845.696L12889.6,876.751L12904.2,917.825L12932.8,997.815L12956.2,1083.55L12978,1150.22L12996.5,1206.04L13010.4,1232.12L13021.4,1246.06L13039.6,1254.9L13044.5,1256.25L13053.8,1256.11L13060.7,1257.06L13064.5,1261.95L13070.1,1275.94L13084.7,1314.11L13096,1360.61L13128.1,1649.77L13162.3,2064.92L13187.5,2504.97L13203.7,2899.79L13215.3,3305.49L13218.6,3725.03L13214.1,4071.51L13202.5,4552.32L13191,4870.19L13182.1,5029.3L13156.2,5452.96L13112.1,5966.42L13103.7,6058.77L13098.3,6085.06L13088.7,6126L13076.7,6159.85L13067.4,6182.1L13060.2,6192.96L13040.7,6194.79L13026.2,6200.33L13016.4,6209.25L13007.8,6219.68L12993.1,6251.59L12980,6288.44L12967.3,6326.9L12945.3,6412.49L12912.1,6510.15L12880.1,6599.16L12848,6670.42L12808.4,6743.47L12757,6824.8L12693.1,6903.57L12632.8,6961.21L12615.9,6975.35L12600.4,6985.66L12271.9,6982.61L11949,6982.12L11792.4,6980.79C11792.4,6980.79 11774.9,6969.69 11775.9,6970.94C11777,6972.2 11764.2,6957.19 11764.2,6957.19C11764.2,6957.19 11777.7,6935.09 11775.5,6932.06C11773.4,6929.04 11771.6,6900.67 11771.6,6900.67L11766.1,6860.75L11762.4,6811.54L11759.2,6753.15L11753.2,6690.86L11748.7,6634.62L11745.2,6587.97L11741.3,6554.6L11729.4,6520.89C11729.4,6520.89 11719.2,6485.32 11719.1,6486.27C11719.1,6487.23 11700.9,6460.88 11700.9,6460.88L11680.2,6435.89L11653.9,6410.81L11629,6391.49L11599.6,6372.23L11566.9,6356.47L11532.9,6340.45L11498.2,6330.75L11459.1,6319.51L11417.5,6311.1L11378.8,6303.5L11343.3,6299.78L11308.9,6294.91L11272.3,6292.17L11235.2,6290.88L11191,6289.51L11150.7,6286.52L11092.2,6286.92L11025.4,6285.78L10819.9,6282.07L9247.91,6282.41L9029.82,6282.98L8963.11,6287.87L8899.76,6285.65L8866.12,6290.43L8830.59,6291.55L8794.73,6291.11L8757.43,6293.8L8718.64,6297.36L8680,6302.16L8644.13,6306.5L8600.22,6317.22L8559.42,6324.12L8511.8,6338.4L8469.91,6355.57L8426.21,6378.23L8391.26,6396.08L8360.75,6423.52L8337.62,6447.6L8314.83,6471.81L8302.76,6495.25L8286.55,6524.91L8278.51,6547.68L8259.07,6560.72L7939.66,6558.16L7915.95,6565.3L7894.83,6579.36L7873.5,6599.87L7860.98,6622.07L7791.59,6941.2L7775.21,6956.23L6783.04,6960.86L6766.43,6953.3L6757.87,6933.33L6620.94,6622.2L6609.1,6600.39L6595.99,6585.73L6576.86,6573.24L6561.32,6563.15L6536.26,6560.92L6281.65,6560.81L6241.73,6572.26L6217.92,6594.16L6196.55,6616.5L6188.12,6644.78L6104.05,7145.38L6088.2,7164.23L6065.18,7172.54L1806.8,7172.71L1795.32,7169.87L1785.38,7163.8L1777.35,7152.6L1772.73,7136.01L1706.74,6747.63L1695.02,6638.18L1689.07,6572.06L1682.88,6508.3L1677.56,6469.24L1675.97,6439.41L1670.88,6423.48L1663.11,6409.48L1649.72,6393.9L1634.72,6385.16L1620.44,6380.37L1602.74,6377.45L1492.76,6379.05L1475.76,6371.41L1458.75,6361.24L1443.71,6353.74L1430.6,6351.19L1350.48,6349.98L1354.93,4260.43L1354.93,808.033L1609.35,806.898L1629.63,798.158L1648.31,781.926L1663.18,759.701L1673.53,738.035L1680.65,713.036L1687.81,685.31L1692.56,660.258L1696.39,611.445L1711.22,507.12L1725.56,426.654L1739.5,368.139L1751.21,322.743L1757.71,299.724L1767.29,286.43L1778.5,278.079L1813.35,277.751L6075.69,276.57L6089.01,281.372L6098.47,291.123L6104.95,306.508L6124.01,430L6189.67,801.633L6197.47,826.18L6207.54,845.687L6224.86,862.452L6240.21,873.899L6256.66,883.627L6277.01,887.948L6296.06,890.613L6543.17,888.807L6575.77,877.095L6596.09,861.063L6616.89,837.033L6629.84,808.278L6645.16,776.403L6658.03,741.596L6670.56,708.192L6691.56,664.731L6714.69,615.408L6741.28,552.858L6757.28,515.183L6764.57,499.479L6776.37,493.221L6793.45,492.519L7772.08,492.607L7788.65,501.821L7795.02,524.893C7795.02,524.893 7864.65,832.93 7864.53,833.025C7864.41,833.119 7879.03,851.52 7879.03,851.52L7898.71,874.105L7919.15,886.368L7944.19,890.065L8173.73,891.099L8197.02,895.076L8214.85,905.132L8235.19,915.835L8260.8,926.451L8288.61,948.875L8310.34,973.138L8339.08,1006.37L8365.35,1030.83L8388.72,1048.17L8509.22,1111.13L8594.99,1134.1L8672.18,1148.87L8751.39,1157.17L8820.06,1161.06L8885.5,1163.92L8956.11,1167.14L9021.38,1166.41L9096.43,1166.32C9096.43,1166.32 11146.1,1166.77 11145.9,1167C11145.7,1167.23 11251.5,1159.5 11251.5,1159.5L11340.8,1155.51L11408.7,1142.95L11476.1,1131.14L11537.8,1105.58L11595.9,1084.44L11647.5,1048.26L11681,1010.6L11713.2,968.142C11713.2,968.142 11732.9,936.615 11733.9,930.482C11734.9,924.348 11741.3,885.14 11741.3,885.14L11750.4,835.037L11767.1,572.352Z" style="fill:none;stroke:black;stroke-width:14.37px;"/>
        </g>
    </g>
</svg>
