<?xml version="1.0" encoding="UTF-8" standalone="no"?>
<!DOCTYPE svg PUBLIC "-//W3C//DTD SVG 1.1//EN" "http://www.w3.org/Graphics/SVG/1.1/DTD/svg11.dtd">
<svg width="100%" height="100%" viewBox="0 0 28000 8000" version="1.1" xmlns="http://www.w3.org/2000/svg" xmlns:xlink="http://www.w3.org/1999/xlink" xml:space="preserve" xmlns:serif="http://www.serif.com/" style="fill-rule:evenodd;clip-rule:evenodd;stroke-linecap:round;stroke-linejoin:round;stroke-miterlimit:1.5;">
    <g transform="matrix(1,0,0,1,8047,303.131)">
        <path d="M11775.5,492.519L11951.7,470.701L12111.8,469.599L12270.9,467.767L12431.2,466.543L12588.2,466.446L12592.3,464.679L12599.9,465.586L12604.8,467.737L12611.4,471.729L12622,481.549L12650.3,505.708L12679.3,534.597L12706.6,562.731L12730.1,591.268L12746.6,612.677L12780.4,660.284L12804.6,699.408L12827.4,739.142L12850.8,788.232L12876.9,845.696L12889.6,876.751L12904.2,917.825L12932.8,997.815L12956.2,1083.55L12978,1150.22L12996.5,1206.04L13010.4,1232.12L13021.4,1246.06L13039.6,1254.9L13044.5,1256.25L13053.8,1256.11L13060.7,1257.06L13064.5,1261.95L13070.1,1275.94L13084.7,1314.11L13096,1360.61L13128.1,1649.77L13162.3,2064.92L13187.5,2504.97L13203.7,2899.79L13215.3,3305.49L13218.6,3725.03L13214.1,4071.51L13202.5,4552.32L13191,4870.19L13182.1,5029.3L13156.2,5452.96L13112.1,5966.42L13103.7,6058.77L13098.3,6085.06L13088.7,6126L13076.7,6159.85L13067.4,6182.1L13060.2,6192.96L13040.7,6194.79L13026.2,6200.33L13016.4,6209.25L13007.8,6219.68L12993.1,6251.59L12980,6288.44L12967.3,6326.9L12945.3,6412.49L12912.1,6510.15L12880.1,6599.16L12848,6670.42L12808.4,6743.47L12757,6824.8L12693.1,6903.57L12632.8,6961.21L12615.9,6975.35L12600.4,6985.66L12271.9,6982.61L11949,6982.12L7795.02,6940.2L6757.28,6975.35L6104.05,7145.38L6088.2,7164.23L6065.18,7172.54L1806.8,7172.71L1795.32,7169.87L1785.38,7163.8L1777.35,7152.6L1772.73,7136.01L1706.74,6747.63L1695.02,6638.18L1689.07,6572.06L1682.88,6508.3L1677.56,6469.24L1675.97,6439.41L1670.88,6423.48L1663.11,6409.48L1649.72,6393.9L1634.72,6385.16L1620.44,6380.37L1602.74,6377.45L1492.76,6379.05L1475.76,6371.41L1458.75,6361.24L1443.71,6353.74L1430.6,6351.19L1350.48,6349.98L1354.93,4260.43L1354.93,808.033L1609.35,806.898L1772.73,845.696C3248.52,832.134 4683.79,868.512 6065.18,845.696L6124.01,430L6757.28,515.183L7795.02,524.893L11775.5,492.519Z" style="fill:none;stroke:black;stroke-width:60px;"/>
    </g>
    <g transform="matrix(1.51948,0,0,1.51948,-1718.45,-2645.43)">
        <path d="M1348.59,4395.3L1362.11,4034.42L1372.03,3700.41L1408.98,3388.78L1439.01,3190.21L1526.52,2981.06L1635.78,2771.43L1732.01,2608.95L1873.51,2399.31L2032.03,2226.11L2198.84,2107.47L2447.47,2019.83L2725.49,1968.52L3034.25,1932.6L3386.26,1923.8L3891.21,1904.54L4349.3,1906.11L4687.89,1921.6L5177.47,1939.82L5581.32,1933.75L6153.78,1928.72L6694.59,1940.35L11397.8,1952.15C11389.1,1945.07 11527.9,1935.03 11662.9,1926.79C11782.4,1919.5 11898.9,1913.63 11907.4,1912.48L12407.5,1902.18L12911.1,1893.91L13360.7,1922.75L13816.2,1976.92L14194,2016.03L14618.4,2063.21L14920.2,2166.76C14929,2173.99 14966.6,2208.24 14996.6,2248.48C15024.3,2285.51 15044.4,2328.5 15051.4,2340.23L15084.7,2451.09C15098.9,2550.28 15114.7,2649.24 15128.9,2748.42C15144.3,2855.54 15158.4,2969.72 15171.7,3076.87L15209.6,3451.32L15228.7,3808.96L15240.6,4100.14L15245.3,4393.16L15242.7,4837.15L15213.9,5337.07L15191.4,5607.08L15149.5,5919.53L15112.5,6193.99L15080.5,6364.69L15045,6488.91L14975.1,6593.78L14872.6,6676.11L14744.7,6719.97L14571.7,6752.47L14018.9,6800.88L13865.9,6803.82L13721.4,6817.84L13578.4,6852.7L13337.1,6871.74L12983.6,6878.19L12552.2,6885.67L12164.8,6889.65L11838.4,6888.13L11665.5,6868.24L11548,6844.27L11157.5,6840.77L5015.18,6827.44L4765.05,6857.4L3898.57,6871.17L3523.54,6874.67L3144.1,6849.31L2790.15,6827.44L2594.63,6787.65L2354.65,6724.7L2128.67,6641.3L2002.29,6528.12L1848.57,6350.4L1674.73,6100.39L1553.05,5893.36L1470.55,5696.72L1407.29,5452.65L1379.65,5184.53L1358.7,4836.6L1348.59,4395.3Z" style="fill:none;stroke:black;stroke-width:39.49px;"/>
    </g>
</svg>
