<?xml version="1.0" encoding="UTF-8" standalone="no"?>
<!DOCTYPE svg PUBLIC "-//W3C//DTD SVG 1.1//EN" "http://www.w3.org/Graphics/SVG/1.1/DTD/svg11.dtd">
<svg width="100%" height="100%" viewBox="0 0 23531 8470" version="1.1" xmlns="http://www.w3.org/2000/svg" xmlns:xlink="http://www.w3.org/1999/xlink" xml:space="preserve" xmlns:serif="http://www.serif.com/" style="fill-rule:evenodd;clip-rule:evenodd;stroke-linecap:round;stroke-linejoin:round;stroke-miterlimit:1.5;">
    <g transform="matrix(1,0,0,1,-360.274,-250.718)">
        <g transform="matrix(1.6921,0,0,1.6921,-1913.68,-2945.98)">
            <path d="M1348.59,4395.3L1362.11,4034.42L1372.03,3700.41L1408.98,3388.78L1439.01,3190.21L1526.52,2981.06L1635.78,2771.43L1732.01,2608.95L1873.51,2399.31L2032.03,2226.11L2198.84,2107.47L2447.47,2019.83L2725.49,1968.52L3034.25,1932.6L3386.26,1923.8L3891.21,1904.54L4349.3,1906.11L4687.89,1921.6L5177.47,1939.82L5581.32,1933.75L6153.78,1928.72L6694.59,1940.35L11397.8,1952.15C11389.1,1945.07 11527.9,1935.03 11662.9,1926.79C11782.4,1919.5 11898.9,1913.63 11907.4,1912.48L12407.5,1902.18L12911.1,1893.91L13360.7,1922.75L13816.2,1976.92L14194,2016.03L14618.4,2063.21L14920.2,2166.76C14929,2173.99 14966.6,2208.24 14996.6,2248.48C15024.3,2285.51 15044.4,2328.5 15051.4,2340.23L15084.7,2451.09C15098.9,2550.28 15114.7,2649.24 15128.9,2748.42C15144.3,2855.54 15158.4,2969.72 15171.7,3076.87L15209.6,3451.32L15228.7,3808.96L15240.6,4100.14L15245.3,4393.16L15242.7,4837.15L15213.9,5337.07L15191.4,5607.08L15149.5,5919.53L15112.5,6193.99L15080.5,6364.69L15045,6488.91L14975.1,6593.78L14872.6,6676.11L14744.7,6719.97L14571.7,6752.47L14018.9,6800.88L13865.9,6803.82L13721.4,6817.84L13578.4,6852.7L13337.1,6871.74L12983.6,6878.19L12552.2,6885.67L12164.8,6889.65L11838.4,6888.13L11665.5,6868.24L11548,6844.27L11157.5,6840.77L5015.18,6827.44L4765.05,6857.4L3898.57,6871.17L3523.54,6874.67L3144.1,6849.31L2790.15,6827.44L2594.63,6787.65L2354.65,6724.7L2128.67,6641.3L2002.29,6528.12L1848.57,6350.4L1674.73,6100.39L1553.05,5893.36L1470.55,5696.72L1407.29,5452.65L1379.65,5184.53L1358.7,4836.6L1348.59,4395.3Z" style="fill:none;stroke:black;stroke-width:9.46px;"/>
        </g>
    </g>
</svg>
